{"asset":{"version":"2.0","generator":"VECTARY"},"nodes":[{"translation":[-0.06371738386787928,-0.5046296546202079,6.141966095381399],"scale":[0.02154601501982937,0.02154601501982937,0.02154601501982937],"rotation":[0.7933533402912353,1.0602903663281422e-19,2.1801963428056584e-19,0.6087614290087204],"name":"Cylinder 1","mesh":0},{"translation":[0.0429433198936581,-0.5451551767000405,-6.337428352302876],"scale":[0.02154601501982937,0.02154601501982937,0.02154601501982937],"rotation":[0.6087614290087205,-7.000474541037856e-19,-5.56120239302584e-19,0.7933533402912352],"name":"Cylinder 2","mesh":1},{"translation":[-6.394999990937889,-0.5687245253567692,0.06167224125172143],"scale":[0.02154601501982937,0.02154601501982937,0.02154601501982937],"rotation":[0.7010573846499779,0.09229595564125724,0.09229595564125725,0.7010573846499778],"name":"Cylinder 3","mesh":2},{"translation":[6.444867126803981,-0.6250036104225801,-0.016397790984053813],"scale":[0.02154601501982937,0.02154601501982937,0.02154601501982937],"rotation":[0.7010573846499779,-0.09229595564125724,-0.09229595564125725,0.7010573846499778],"name":"Cylinder","mesh":3},{"translation":[-0.026465275864737577,1.4210854715202004e-17,-0.0791359411432644],"scale":[-0.040018397184980244,0.040018397184980244,0.04001839718498024],"rotation":[0.7070706429404242,0.007148838494131524,-0.007148838494131523,0.7070706429404241],"name":"Torus","mesh":4}],"materials":[{"pbrMetallicRoughness":{"baseColorFactor":[0.30212549635885283,0.1939721670480931,0.38891025653905886,1],"metallicFactor":0,"roughnessFactor":0.2},"name":"Stanley 1","emissiveFactor":[0,0,0],"extensions":{},"alphaMode":"OPAQUE","doubleSided":false},{"pbrMetallicRoughness":{"baseColorFactor":[0.2888159727972186,0.11657577617857154,0.33922333493532675,1],"metallicFactor":0,"roughnessFactor":0.2},"name":"Stanley 2","emissiveFactor":[0,0,0],"extensions":{},"alphaMode":"OPAQUE","doubleSided":false},{"pbrMetallicRoughness":{"baseColorFactor":[0.215764399609395,0.04455262731642138,0.24680041960155044,1],"metallicFactor":0,"roughnessFactor":0.2},"name":"Stanley 3","emissiveFactor":[0.13,0.13,0.13],"extensions":{},"alphaMode":"OPAQUE","doubleSided":false},{"pbrMetallicRoughness":{"baseColorFactor":[0.5295232224172772,0.3111804990579844,0.6661169687758508,1],"metallicFactor":0,"roughnessFactor":0.2},"name":"Stanley","emissiveFactor":[0,0,0],"extensions":{},"alphaMode":"OPAQUE","doubleSided":false},{"pbrMetallicRoughness":{"baseColorFactor":[0.598941789493296,0,0.9322768502645428,1],"metallicFactor":0,"roughnessFactor":0.2},"name":"Magic Spell","emissiveFactor":[0,0,0],"extensions":{},"alphaMode":"OPAQUE","doubleSided":false}],"meshes":[{"primitives":[{"mode":4,"attributes":{"POSITION":1,"NORMAL":2,"TEXCOORD_0":3},"material":0,"indices":0}]},{"primitives":[{"mode":4,"attributes":{"POSITION":5,"NORMAL":6,"TEXCOORD_0":7},"material":1,"indices":4}]},{"primitives":[{"mode":4,"attributes":{"POSITION":9,"NORMAL":10,"TEXCOORD_0":11},"material":2,"indices":8}]},{"primitives":[{"mode":4,"attributes":{"POSITION":13,"NORMAL":14,"TEXCOORD_0":15},"material":3,"indices":12}]},{"primitives":[{"mode":4,"attributes":{"POSITION":17,"NORMAL":18,"TEXCOORD_0":19},"material":4,"indices":16}]}],"accessors":[{"bufferView":0,"byteOffset":0,"componentType":5125,"count":6912,"type":"SCALAR"},{"bufferView":1,"byteOffset":0,"componentType":5126,"count":1302,"max":[25,25,120.4000015258789],"min":[-25,-25,0],"type":"VEC3"},{"bufferView":2,"byteOffset":0,"componentType":5126,"count":1302,"type":"VEC3"},{"bufferView":3,"byteOffset":0,"componentType":5126,"count":1302,"type":"VEC2"},{"bufferView":4,"byteOffset":0,"componentType":5125,"count":6912,"type":"SCALAR"},{"bufferView":5,"byteOffset":0,"componentType":5126,"count":1302,"max":[25,25,120.4000015258789],"min":[-25,-25,0],"type":"VEC3"},{"bufferView":6,"byteOffset":0,"componentType":5126,"count":1302,"type":"VEC3"},{"bufferView":7,"byteOffset":0,"componentType":5126,"count":1302,"type":"VEC2"},{"bufferView":8,"byteOffset":0,"componentType":5125,"count":6912,"type":"SCALAR"},{"bufferView":9,"byteOffset":0,"componentType":5126,"count":1302,"max":[25,25,120.4000015258789],"min":[-25,-25,0],"type":"VEC3"},{"bufferView":10,"byteOffset":0,"componentType":5126,"count":1302,"type":"VEC3"},{"bufferView":11,"byteOffset":0,"componentType":5126,"count":1302,"type":"VEC2"},{"bufferView":12,"byteOffset":0,"componentType":5125,"count":6912,"type":"SCALAR"},{"bufferView":13,"byteOffset":0,"componentType":5126,"count":1302,"max":[25,25,120.4000015258789],"min":[-25,-25,0],"type":"VEC3"},{"bufferView":14,"byteOffset":0,"componentType":5126,"count":1302,"type":"VEC3"},{"bufferView":15,"byteOffset":0,"componentType":5126,"count":1302,"type":"VEC2"},{"bufferView":16,"byteOffset":0,"componentType":5125,"count":12288,"type":"SCALAR"},{"bufferView":17,"byteOffset":0,"componentType":5126,"count":2145,"max":[169.5,169.5,15.600000381469727],"min":[-169.5,-169.5,-1.9073486612342094e-7],"type":"VEC3"},{"bufferView":18,"byteOffset":0,"componentType":5126,"count":2145,"type":"VEC3"},{"bufferView":19,"byteOffset":0,"componentType":5126,"count":2145,"type":"VEC2"}],"bufferViews":[{"buffer":0,"byteOffset":0,"byteLength":27648,"target":34963},{"buffer":0,"byteOffset":27648,"byteLength":15624,"target":34962},{"buffer":0,"byteOffset":43272,"byteLength":15624,"target":34962},{"buffer":0,"byteOffset":58896,"byteLength":10416,"target":34962},{"buffer":0,"byteOffset":69312,"byteLength":27648,"target":34963},{"buffer":0,"byteOffset":96960,"byteLength":15624,"target":34962},{"buffer":0,"byteOffset":112584,"byteLength":15624,"target":34962},{"buffer":0,"byteOffset":128208,"byteLength":10416,"target":34962},{"buffer":0,"byteOffset":138624,"byteLength":27648,"target":34963},{"buffer":0,"byteOffset":166272,"byteLength":15624,"target":34962},{"buffer":0,"byteOffset":181896,"byteLength":15624,"target":34962},{"buffer":0,"byteOffset":197520,"byteLength":10416,"target":34962},{"buffer":0,"byteOffset":207936,"byteLength":27648,"target":34963},{"buffer":0,"byteOffset":235584,"byteLength":15624,"target":34962},{"buffer":0,"byteOffset":251208,"byteLength":15624,"target":34962},{"buffer":0,"byteOffset":266832,"byteLength":10416,"target":34962},{"buffer":0,"byteOffset":277248,"byteLength":49152,"target":34963},{"buffer":0,"byteOffset":326400,"byteLength":25740,"target":34962},{"buffer":0,"byteOffset":352140,"byteLength":25740,"target":34962},{"buffer":0,"byteOffset":377880,"byteLength":17160,"target":34962}],"scene":0,"scenes":[{"nodes":[0,1,2,3,4],"name":"LightFixture"}],"extensionsUsed":["KHR_texture_transform"],"buffers":[{"byteLength":395040,"uri":"LightFixture.bin"}]}